<svg version="1.1" id="Layer_1" xmlns="http://www.w3.org/2000/svg" xmlns:xlink="http://www.w3.org/1999/xlink" x="0px" y="0px"
	 width="100%" viewBox="0 0 964 810" enable-background="new 0 0 964 810" xml:space="preserve">
<path fill="#FFFFFF" opacity="1.000000" stroke="none" 
	d="
M538.000000,811.000000 
	C359.071899,811.000000 180.143799,811.000000 1.000000,811.000000 
	C1.000000,637.308472 1.000000,463.616882 1.323528,289.586609 
	C2.067246,290.479828 2.487436,291.711792 2.537519,293.162018 
	C2.553637,299.782898 2.902621,306.188324 3.385072,312.583649 
	C3.432067,313.206604 4.302650,313.767426 4.784161,314.954102 
	C4.824380,316.344269 4.871376,317.137390 4.563217,318.133545 
	C5.227275,326.557678 6.246488,334.778748 7.260132,343.403351 
	C9.522281,355.202637 11.789997,366.598419 14.048872,378.396698 
	C14.330691,379.912537 14.604975,381.030426 14.914500,382.138489 
	C18.620539,395.405487 22.331806,408.670959 26.047997,422.235962 
	C26.404816,423.406219 26.775169,424.270020 27.102783,425.149719 
	C30.304134,433.745575 33.498348,442.344147 36.611984,450.756348 
	C37.006046,452.068970 37.482716,453.567108 37.975960,455.035522 
	C37.992535,455.005768 37.925003,455.014648 37.907295,455.371765 
	C38.578815,457.174194 39.268047,458.619568 39.974701,460.035004 
	C39.992119,460.005096 39.924278,460.018829 39.909767,460.373627 
	C40.583935,462.173584 41.272610,463.618774 41.977577,465.034058 
	C41.993866,465.004150 41.928616,465.023499 41.919445,465.401672 
	C43.253399,468.917908 44.596523,472.055969 46.077438,475.500732 
	C46.812786,476.714417 47.410347,477.621399 47.880993,478.584839 
	C47.754078,478.641296 47.637081,478.394958 47.637081,478.394958 
	C47.637081,478.394958 48.008770,478.393036 48.254345,478.785370 
	C48.633221,479.455994 48.766521,479.734314 48.833130,480.003235 
	C48.766441,479.993866 48.695034,479.812103 49.002861,480.517487 
	C49.476204,481.708527 49.641727,482.194153 49.896812,482.832397 
	C50.977737,485.342682 51.969101,487.700439 52.978294,490.030182 
	C52.996124,490.002197 52.933788,490.024872 52.938644,490.398651 
	C56.282276,497.201447 59.621048,503.630432 62.977402,510.031250 
	C62.994980,510.003052 62.930820,510.020325 62.922188,510.326782 
	C63.262688,511.108582 63.611816,511.583893 63.978378,512.031189 
	C63.995815,512.003174 63.931755,512.018799 63.923820,512.324829 
	C64.266396,513.106628 64.616905,513.582397 64.982834,514.030579 
	C64.998253,514.002991 64.940300,514.028320 64.976624,514.391113 
	C66.556068,517.137390 68.099205,519.520874 69.642334,521.904297 
	C69.553986,521.906250 69.425735,521.945801 69.385002,521.902710 
	C69.277328,521.788696 69.207512,521.638977 69.470840,521.934875 
	C71.575607,525.859497 73.082253,529.507751 75.136368,532.816162 
	C80.905556,542.108032 86.688591,551.404602 92.860367,560.429749 
	C100.390923,571.441895 107.915482,582.502441 116.194092,592.946350 
	C124.707237,603.686340 134.125549,613.708801 143.070099,624.221436 
	C143.996887,625.294067 145.001358,626.190552 145.997406,627.046753 
	C145.988998,627.006592 145.909454,627.026978 145.855057,627.383301 
	C146.170792,627.873535 146.540924,628.007446 146.923065,628.098999 
	C146.935104,628.056702 146.847168,628.059326 146.692749,628.406616 
	C147.063950,629.302856 147.589554,629.851746 148.127838,630.535645 
	C148.241882,630.851624 148.395218,630.927368 148.788086,631.151672 
	C149.310791,631.628418 149.645981,631.851196 149.986801,632.040466 
	C149.992432,632.006958 149.929337,632.032166 149.979233,632.304321 
	C150.340454,632.741638 150.651794,632.906860 150.978363,633.039185 
	C150.993607,633.006348 150.927856,633.036743 150.979095,633.307983 
	C151.341263,633.743530 151.652161,633.907837 151.978317,634.039246 
	C151.993561,634.006348 151.927826,634.036865 151.979004,634.308105 
	C152.341080,634.743652 152.651978,634.907959 152.978210,635.039307 
	C152.993546,635.006348 152.927734,635.036987 152.978668,635.307861 
	C153.339828,635.743591 153.650024,635.908325 153.976913,636.039795 
	C153.993591,636.006409 153.926956,636.039856 153.974808,636.312378 
	C154.334488,636.747803 154.646301,636.910767 154.975830,637.040039 
	C154.993530,637.006348 154.926193,637.041748 154.974609,637.313843 
	C155.334717,637.748535 155.646393,637.911194 155.975815,638.040039 
	C155.993576,638.006348 155.926178,638.041870 155.974548,638.313965 
	C156.334610,638.748657 156.646301,638.911194 156.975769,639.040100 
	C156.993546,639.006409 156.925980,639.041504 156.975296,639.315002 
	C157.338669,639.750854 157.652710,639.913208 157.978973,640.042236 
	C157.991180,640.008911 157.923752,640.031128 157.973480,640.307617 
	C158.340668,640.748230 158.658127,640.912292 158.983337,641.042725 
	C158.991058,641.008972 158.923416,641.023438 158.973236,641.300903 
	C159.340958,641.744446 159.658859,641.910583 159.983902,642.042847 
	C159.991058,642.008972 159.923416,642.023438 159.973236,642.300903 
	C160.340958,642.744446 160.658859,642.910583 160.983902,643.042847 
	C160.991058,643.008972 160.923416,643.023438 160.972870,643.300415 
	C161.339096,643.744324 161.655884,643.911377 161.982025,644.043701 
	C161.991348,644.009094 161.926285,644.039307 161.988602,644.371399 
	C164.354309,646.826843 166.657715,648.950195 168.976074,651.041016 
	C168.991028,651.008362 168.922256,651.028931 168.971497,651.303589 
	C169.334778,651.743225 169.648804,651.908264 169.977966,652.039917 
	C169.993088,652.006653 169.927155,652.038208 169.978790,652.309204 
	C170.341339,652.744202 170.652267,652.908203 170.978516,653.039246 
	C170.993820,653.006287 170.928253,653.037598 170.982178,653.308289 
	C171.352173,653.739990 171.668243,653.901062 171.990784,654.032104 
	C171.997238,654.002014 171.940506,654.025818 172.101135,654.338135 
	C172.820816,654.824280 173.379868,654.998047 173.944305,655.122925 
	C173.949692,655.073975 173.852661,655.090820 173.742737,655.456787 
	C174.057327,655.930969 174.481842,656.039246 174.926712,656.099609 
	C174.947083,656.051819 174.852676,656.095276 174.747742,656.447083 
	C175.077286,656.904541 175.511765,657.010254 175.955841,657.074585 
	C175.965408,657.033325 175.886261,657.063904 175.835663,657.403687 
	C177.458466,659.122681 179.131851,660.501831 181.001801,662.010803 
	C181.198395,662.140625 181.666626,662.193054 181.709686,662.329224 
	C181.609390,662.427185 181.466003,662.388977 181.322647,662.350769 
	C181.381439,662.255127 181.440216,662.159485 181.744965,662.375366 
	C192.133911,671.520386 202.150177,680.505920 212.478653,689.116943 
	C216.968964,692.860596 222.101013,695.834534 227.091599,699.463440 
	C231.095703,702.625061 234.767456,705.776794 238.835205,708.286804 
	C257.161346,719.594971 275.599762,730.721191 294.231232,741.983032 
	C294.803253,742.395142 295.141754,742.737305 295.666626,743.410522 
	C296.553925,743.870544 297.254822,743.999390 297.968933,744.083008 
	C297.982178,744.037720 297.903015,744.088867 297.944702,744.475098 
	C298.484711,744.937012 298.983063,745.012573 299.487762,745.052124 
	C299.494141,745.015991 299.428711,745.049072 299.628784,745.432068 
	C300.384766,745.905273 300.940643,745.995544 301.493835,746.050293 
	C301.491150,746.014709 301.428711,746.049072 301.628784,746.432007 
	C302.384766,746.905212 302.940674,746.995483 303.492126,747.050049 
	C303.487671,747.014404 303.426392,747.052002 303.541870,747.386230 
	C304.101837,747.836365 304.546326,747.952271 304.993225,748.036133 
	C304.995667,748.004089 304.940582,748.037170 305.115204,748.287964 
	C305.853973,748.715027 306.418121,748.891296 306.989319,749.035889 
	C306.996368,749.004272 306.940582,749.037170 307.115204,749.287964 
	C307.853973,749.714966 308.418121,749.891235 308.989441,750.035767 
	C308.996613,750.004089 308.941986,750.039246 309.129608,750.299255 
	C310.489166,750.994263 311.661072,751.429321 313.067413,752.145081 
	C322.867554,756.580627 332.433258,760.735474 342.331543,765.040833 
	C343.930817,765.815247 345.197510,766.439148 346.608337,767.350708 
	C354.006653,770.354248 361.260834,773.070068 368.883636,775.945923 
	C373.203247,777.394958 377.154236,778.684082 381.353577,780.225708 
	C391.314026,783.409607 401.026062,786.341064 410.871521,789.496338 
	C411.338684,789.771606 411.672424,789.823059 412.299377,789.972107 
	C413.001984,790.073547 413.411438,790.077454 414.087280,790.343506 
	C429.102509,794.006653 443.851318,797.407654 459.045746,800.901489 
	C471.754181,802.717651 483.994690,804.625793 496.286194,806.112244 
	C508.494995,807.588806 520.755127,808.641113 533.377686,809.928955 
	C535.175049,810.319031 536.587524,810.659485 538.000000,811.000000 
z"/>
<path fill="#7448DB" opacity="1.000000" stroke="none" 
	d="
M268.000000,0.999999 
	C296.354218,1.000000 324.708466,1.000000 353.536011,1.371439 
	C354.338806,2.659168 354.516418,3.670213 355.020233,4.477749 
	C365.298065,20.951296 375.629578,37.391338 385.917419,53.858650 
	C408.954742,90.733360 431.938660,127.641464 455.012482,164.493286 
	C471.569763,190.937363 488.290405,217.279160 504.843048,243.726120 
	C527.910461,280.582001 550.859253,317.512024 573.915222,354.375000 
	C591.515503,382.515198 609.237427,410.579285 626.843567,438.715851 
	C648.674744,473.604553 670.413513,508.551178 692.247498,543.438171 
	C706.774292,566.649658 721.436218,589.776428 735.969482,612.983887 
	C759.575134,650.678589 783.154114,688.390198 806.675171,726.137756 
	C811.754578,734.289307 816.540344,742.623962 821.273987,751.104248 
	C820.068542,752.247986 819.050415,753.161804 818.018311,754.041809 
	C818.004272,754.008057 818.068420,754.043030 817.713379,753.949341 
	C816.914246,754.263733 816.470215,754.671753 816.015869,755.044861 
	C816.005554,755.009888 816.068726,755.046387 815.714111,754.951843 
	C814.914978,755.264832 814.470520,755.672363 814.015381,756.044678 
	C814.004639,756.009399 814.066650,756.049133 813.701904,755.933838 
	C811.664429,756.818726 809.991821,757.818909 807.958130,759.000305 
	C806.218933,759.561035 804.787109,759.808472 803.472046,760.343079 
	C797.941101,762.591797 792.444946,764.926147 786.578735,767.259644 
	C779.135620,770.146484 772.049866,773.002930 764.568848,775.856079 
	C760.451599,776.967407 756.729553,778.081970 752.978027,778.827332 
	C752.290039,777.127502 751.738831,775.729919 750.956604,774.476501 
	C740.675659,758.004333 730.355347,741.556763 720.057983,725.094788 
	C698.495544,690.623718 676.959778,656.136047 655.376038,621.678345 
	C642.336914,600.862000 629.179993,580.119446 616.162170,559.289856 
	C595.053284,525.513977 574.046753,491.674011 552.936157,457.899139 
	C538.334412,434.537750 523.604492,411.256439 508.977509,387.910767 
	C487.478180,353.596191 466.035004,319.246490 444.538300,284.930298 
	C429.736450,261.301392 414.841003,237.731064 400.064850,214.086166 
	C375.966888,175.524506 351.968781,136.900436 327.858795,98.346313 
	C309.643738,69.218735 291.291595,40.176868 273.084656,11.044249 
	C271.103882,7.874834 269.681427,4.356496 268.000000,0.999999 
z"/>
<path fill="#6B4CDC" opacity="1.000000" stroke="none" 
	d="
M267.531342,0.999999 
	C269.681427,4.356496 271.103882,7.874834 273.084656,11.044249 
	C291.291595,40.176868 309.643738,69.218735 327.858795,98.346313 
	C351.968781,136.900436 375.966888,175.524506 400.064850,214.086166 
	C414.841003,237.731064 429.736450,261.301392 444.538300,284.930298 
	C466.035004,319.246490 487.478180,353.596191 508.977509,387.910767 
	C523.604492,411.256439 538.334412,434.537750 552.936157,457.899139 
	C574.046753,491.674011 595.053284,525.513977 616.162170,559.289856 
	C629.179993,580.119446 642.336914,600.862000 655.376038,621.678345 
	C676.959778,656.136047 698.495544,690.623718 720.057983,725.094788 
	C730.355347,741.556763 740.675659,758.004333 750.956604,774.476501 
	C751.738831,775.729919 752.290039,777.127502 752.676147,779.027771 
	C743.273071,782.466736 734.142334,785.336060 724.632874,788.238159 
	C711.547546,791.354797 698.840942,794.438599 686.083618,797.137329 
	C684.556885,794.170471 683.166748,791.535217 681.591736,789.015503 
	C667.428833,766.357666 653.221497,743.727722 639.050720,721.074890 
	C617.575500,686.745605 596.141968,652.390320 574.647461,618.073181 
	C558.173340,591.771301 541.598267,565.532532 525.129517,539.227356 
	C503.377655,504.483459 481.686646,469.701477 459.967896,434.936890 
	C434.907776,394.823853 409.877045,354.692383 384.774902,314.605652 
	C365.309387,283.520294 345.703979,252.522552 326.250671,221.429611 
	C301.516235,181.895630 276.916595,142.277313 252.175171,102.747711 
	C233.949219,73.627914 215.531876,44.627785 197.348267,15.481704 
	C194.494171,10.906937 192.429611,5.839592 190.000000,1.000003 
	C215.687561,1.000000 241.375122,1.000000 267.531342,0.999999 
z"/>
<path fill="#5B54DE" opacity="1.000000" stroke="none" 
	d="
M538.399963,811.000000 
	C536.587524,810.659485 535.175049,810.319031 533.317505,809.593262 
	C531.395935,807.726746 529.595032,806.452637 528.495789,804.730591 
	C521.618652,793.956909 514.894409,783.085571 508.126343,772.242310 
	C485.098602,735.349182 462.111847,698.430420 439.034821,661.568176 
	C422.475311,635.116638 405.741394,608.774231 389.184296,582.321228 
	C366.110626,545.456787 343.171936,508.507812 320.095154,471.645355 
	C301.862335,442.520660 283.451813,413.507202 265.221985,384.380646 
	C240.475632,344.842377 215.856766,305.224304 191.125214,265.676758 
	C173.522461,237.528671 155.797256,209.457184 138.174728,181.321426 
	C112.710617,140.666000 87.260490,100.001740 61.879986,59.294113 
	C57.682266,52.561420 53.870182,45.588295 49.959961,38.210217 
	C50.333519,37.063858 50.627003,36.433559 50.846275,35.576012 
	C52.164753,32.210773 53.557434,29.072784 54.970734,25.966309 
	C54.991352,25.997822 54.922421,25.967466 55.285973,25.997673 
	C57.416252,21.996851 59.182976,17.965820 60.970348,13.965555 
	C60.990997,13.996319 60.920746,13.972745 61.286339,13.977167 
	C61.751995,13.298633 61.852058,12.615676 61.971489,11.963984 
	C61.990856,11.995247 61.920994,11.972240 62.287899,11.978550 
	C62.757015,11.302610 62.859226,10.620359 62.978012,9.968846 
	C62.994583,9.999583 62.935837,9.961795 63.283001,10.083274 
	C65.086777,7.136502 66.543388,4.068252 68.000000,1.000000 
	C77.687561,1.000000 87.375122,1.000000 97.567535,1.358193 
	C99.043388,3.638139 99.869682,5.650498 101.007561,7.467757 
	C113.601624,27.581108 126.277481,47.643253 138.865936,67.760101 
	C160.609131,102.506577 182.290146,137.291946 204.028259,172.041611 
	C217.933899,194.270615 231.916916,216.451218 245.826553,238.677750 
	C267.482758,273.282684 289.088165,307.919434 310.749603,342.521118 
	C325.455017,366.011444 340.243652,389.449738 354.951935,412.938324 
	C376.617706,447.537811 398.263580,482.149841 419.883301,516.778198 
	C440.975464,550.561523 461.972961,584.403992 483.108032,618.160400 
	C499.928680,645.025818 516.931091,671.777344 533.786011,698.621399 
	C556.904602,735.441223 579.959961,772.300842 602.832764,809.460327 
	C600.748779,810.184875 598.874390,810.592468 597.000000,811.000000 
	C596.250000,811.000000 595.500000,811.000000 594.116516,810.676270 
	C590.256958,810.290955 587.030945,810.229431 583.369141,810.074341 
	C579.622253,810.320496 576.311157,810.660217 573.000000,811.000000 
	C569.969421,811.000000 566.938782,811.000000 563.320923,810.584229 
	C559.156982,810.134033 555.580261,810.099731 551.556885,810.045288 
	C548.073547,810.350220 545.036743,810.675110 542.000000,811.000000 
	C540.933289,811.000000 539.866638,811.000000 538.399963,811.000000 
z"/>
<path fill="#7C44DA" opacity="1.000000" stroke="none" 
	d="
M821.461304,750.874268 
	C816.540344,742.623962 811.754578,734.289307 806.675171,726.137756 
	C783.154114,688.390198 759.575134,650.678589 735.969482,612.983887 
	C721.436218,589.776428 706.774292,566.649658 692.247498,543.438171 
	C670.413513,508.551178 648.674744,473.604553 626.843567,438.715851 
	C609.237427,410.579285 591.515503,382.515198 573.915222,354.375000 
	C550.859253,317.512024 527.910461,280.582001 504.843048,243.726120 
	C488.290405,217.279160 471.569763,190.937363 455.012482,164.493286 
	C431.938660,127.641464 408.954742,90.733360 385.917419,53.858650 
	C375.629578,37.391338 365.298065,20.951296 355.020233,4.477749 
	C354.516418,3.670213 354.338806,2.659168 354.004639,1.371439 
	C379.354218,1.000000 404.708466,1.000000 430.536499,1.376214 
	C432.114227,4.135525 432.980255,6.666873 434.358826,8.878813 
	C448.496002,31.562407 462.736450,54.181602 476.908691,76.843414 
	C498.650360,111.609016 520.333923,146.410980 542.095276,181.164276 
	C554.958679,201.707367 567.985657,222.148117 580.830078,242.703033 
	C601.591431,275.927490 622.220276,309.234772 642.987732,342.455383 
	C656.187927,363.570923 669.586060,384.562653 682.809570,405.663696 
	C704.495483,440.268219 726.106689,474.919495 747.758606,509.545258 
	C761.841187,532.066223 775.942505,554.575500 790.031189,577.092651 
	C811.516113,611.430847 832.989441,645.776428 854.484558,680.108276 
	C862.672119,693.185364 870.906250,706.233276 878.932251,719.575256 
	C867.776062,726.338806 856.806763,732.821594 845.508545,739.336609 
	C844.132751,740.266174 843.085876,741.163452 842.020264,742.032349 
	C842.001587,742.003906 842.063049,742.033203 841.708618,741.934692 
	C840.910767,742.250122 840.467285,742.664001 840.014404,743.043457 
	C840.005066,743.009033 840.067139,743.044373 839.693604,742.940674 
	C833.367126,745.516052 827.414246,748.195190 821.461304,750.874268 
z"/>
<path fill="#8340D9" opacity="1.000000" stroke="none" 
	d="
M879.119202,719.294556 
	C870.906250,706.233276 862.672119,693.185364 854.484558,680.108276 
	C832.989441,645.776428 811.516113,611.430847 790.031189,577.092651 
	C775.942505,554.575500 761.841187,532.066223 747.758606,509.545258 
	C726.106689,474.919495 704.495483,440.268219 682.809570,405.663696 
	C669.586060,384.562653 656.187927,363.570923 642.987732,342.455383 
	C622.220276,309.234772 601.591431,275.927490 580.830078,242.703033 
	C567.985657,222.148117 554.958679,201.707367 542.095276,181.164276 
	C520.333923,146.410980 498.650360,111.609016 476.908691,76.843414 
	C462.736450,54.181602 448.496002,31.562407 434.358826,8.878813 
	C432.980255,6.666873 432.114227,4.135525 431.005127,1.376214 
	C457.020905,1.000000 483.041779,1.000000 509.536499,1.376208 
	C510.722412,3.596390 511.158386,5.613151 512.187927,7.258475 
	C528.208069,32.860798 544.307922,58.413277 560.383423,83.980942 
	C575.223083,107.582901 590.090332,131.167587 604.883118,154.798843 
	C626.631104,189.540756 648.324341,224.316925 670.039795,259.079224 
	C688.414429,288.493439 706.757324,317.927490 725.170532,347.317444 
	C739.707642,370.520691 754.367310,393.647156 768.906189,416.849274 
	C790.581848,451.440765 812.197266,486.070099 833.842041,520.680969 
	C847.919800,543.191833 862.001770,565.700073 876.086304,588.206787 
	C894.220093,617.184143 912.345581,646.166626 930.531372,675.111328 
	C931.467041,676.600525 932.935791,677.754822 933.999268,679.371582 
	C931.751465,681.441162 929.736572,683.304626 927.557373,684.950562 
	C914.585999,694.747681 901.597534,704.522827 888.552979,714.222168 
	C886.939880,715.421631 884.959961,716.127869 882.821899,717.075562 
	C881.995117,717.696106 881.496399,718.303772 880.684265,718.973938 
	C879.953613,719.122437 879.536377,719.208496 879.119202,719.294556 
z"/>
<path fill="#8B3CD8" opacity="1.000000" stroke="none" 
	d="
M934.156372,679.065063 
	C932.935791,677.754822 931.467041,676.600525 930.531372,675.111328 
	C912.345581,646.166626 894.220093,617.184143 876.086304,588.206787 
	C862.001770,565.700073 847.919800,543.191833 833.842041,520.680969 
	C812.197266,486.070099 790.581848,451.440765 768.906189,416.849274 
	C754.367310,393.647156 739.707642,370.520691 725.170532,347.317444 
	C706.757324,317.927490 688.414429,288.493439 670.039795,259.079224 
	C648.324341,224.316925 626.631104,189.540756 604.883118,154.798843 
	C590.090332,131.167587 575.223083,107.582901 560.383423,83.980942 
	C544.307922,58.413277 528.208069,32.860798 512.187927,7.258475 
	C511.158386,5.613151 510.722412,3.596390 510.005157,1.376208 
	C536.687561,1.000000 563.375122,1.000000 590.535889,1.370100 
	C591.237671,2.523769 591.301697,3.410344 591.718567,4.076064 
	C607.840027,29.825590 624.013000,55.542862 640.138062,81.290092 
	C658.465759,110.554245 676.729126,139.858673 695.068726,169.115341 
	C707.942017,189.651871 720.937683,210.111694 733.804565,230.652161 
	C755.483765,265.260254 777.099304,299.908142 798.751160,334.533325 
	C812.833862,357.054047 826.941650,379.558960 841.023499,402.080139 
	C862.410217,436.283936 883.783325,470.496185 905.163574,504.704010 
	C922.144836,531.873596 939.066895,559.080566 956.179138,586.167358 
	C958.648315,590.075867 962.036865,593.403564 965.000000,597.000000 
	C965.000000,615.354248 965.000000,633.708435 964.672485,652.634766 
	C963.899353,653.398560 963.354553,653.485229 963.022766,653.797852 
	C956.942200,659.527649 950.998657,665.408875 944.781433,670.985168 
	C941.479980,673.946289 937.713135,676.388550 934.156372,679.065063 
z"/>
<path fill="#9337D7" opacity="1.000000" stroke="none" 
	d="
M965.000000,596.531372 
	C962.036865,593.403564 958.648315,590.075867 956.179138,586.167358 
	C939.066895,559.080566 922.144836,531.873596 905.163574,504.704010 
	C883.783325,470.496185 862.410217,436.283936 841.023499,402.080139 
	C826.941650,379.558960 812.833862,357.054047 798.751160,334.533325 
	C777.099304,299.908142 755.483765,265.260254 733.804565,230.652161 
	C720.937683,210.111694 707.942017,189.651871 695.068726,169.115341 
	C676.729126,139.858673 658.465759,110.554245 640.138062,81.290092 
	C624.013000,55.542862 607.840027,29.825590 591.718567,4.076064 
	C591.301697,3.410344 591.237671,2.523769 591.004517,1.370100 
	C617.020874,1.000000 643.041809,1.000000 669.567932,1.352584 
	C671.757507,4.554507 673.376221,7.445066 675.136475,10.246695 
	C689.702393,33.429382 704.353516,56.558716 718.864990,79.775345 
	C741.291016,115.654465 763.579895,151.619339 786.016052,187.492050 
	C804.229492,216.613174 822.621948,245.622284 840.847839,274.735657 
	C862.242798,308.911377 883.528992,343.155182 904.889709,377.352386 
	C921.943054,404.653809 938.976440,431.968170 956.181580,459.173767 
	C958.651550,463.079407 962.037842,466.405609 965.000000,470.000000 
	C965.000000,512.020874 965.000000,554.041809 965.000000,596.531372 
z"/>
<path fill="#6151DD" opacity="1.000000" stroke="none" 
	d="
M603.042358,809.143433 
	C579.959961,772.300842 556.904602,735.441223 533.786011,698.621399 
	C516.931091,671.777344 499.928680,645.025818 483.108032,618.160400 
	C461.972961,584.403992 440.975464,550.561523 419.883301,516.778198 
	C398.263580,482.149841 376.617706,447.537811 354.951935,412.938324 
	C340.243652,389.449738 325.455017,366.011444 310.749603,342.521118 
	C289.088165,307.919434 267.482758,273.282684 245.826553,238.677750 
	C231.916916,216.451218 217.933899,194.270615 204.028259,172.041611 
	C182.290146,137.291946 160.609131,102.506577 138.865936,67.760101 
	C126.277481,47.643253 113.601624,27.581108 101.007561,7.467757 
	C99.869682,5.650498 99.043388,3.638139 98.036194,1.358193 
	C113.354225,1.000000 128.708450,1.000000 144.536041,1.371436 
	C145.338715,2.658969 145.516907,3.669236 146.020187,4.476954 
	C152.954529,15.606153 159.951874,26.696072 166.898361,37.817741 
	C189.935318,74.701088 212.921585,111.616150 235.998230,148.474640 
	C252.557541,174.923492 269.278473,201.271133 285.840515,227.718277 
	C307.687622,262.605011 329.434113,297.554779 351.254059,332.458557 
	C365.155457,354.695557 379.123901,376.890594 393.040222,399.118286 
	C414.531128,433.444336 435.988831,467.791260 457.488129,502.112091 
	C472.291626,525.744080 487.164307,549.332703 501.965485,572.966125 
	C523.549561,607.430054 545.082764,641.925964 566.664062,676.391602 
	C591.417053,715.922363 616.225769,755.418274 640.912781,794.990173 
	C642.711548,797.873474 643.718689,801.250671 644.728638,804.552002 
	C643.220398,804.798523 642.067017,804.823120 640.936096,804.994934 
	C632.617798,806.258911 624.303955,807.552246 615.529785,808.905762 
	C611.061340,809.031128 607.051880,809.087280 603.042358,809.143433 
z"/>
<path fill="#6550DD" opacity="1.000000" stroke="none" 
	d="
M645.093872,804.398315 
	C643.718689,801.250671 642.711548,797.873474 640.912781,794.990173 
	C616.225769,755.418274 591.417053,715.922363 566.664062,676.391602 
	C545.082764,641.925964 523.549561,607.430054 501.965485,572.966125 
	C487.164307,549.332703 472.291626,525.744080 457.488129,502.112091 
	C435.988831,467.791260 414.531128,433.444336 393.040222,399.118286 
	C379.123901,376.890594 365.155457,354.695557 351.254059,332.458557 
	C329.434113,297.554779 307.687622,262.605011 285.840515,227.718277 
	C269.278473,201.271133 252.557541,174.923492 235.998230,148.474640 
	C212.921585,111.616150 189.935318,74.701088 166.898361,37.817741 
	C159.951874,26.696072 152.954529,15.606153 146.020187,4.476954 
	C145.516907,3.669236 145.338715,2.658969 145.004700,1.371436 
	C159.687561,1.000000 174.375122,1.000000 189.531342,1.000003 
	C192.429611,5.839592 194.494171,10.906937 197.348267,15.481704 
	C215.531876,44.627785 233.949219,73.627914 252.175171,102.747711 
	C276.916595,142.277313 301.516235,181.895630 326.250671,221.429611 
	C345.703979,252.522552 365.309387,283.520294 384.774902,314.605652 
	C409.877045,354.692383 434.907776,394.823853 459.967896,434.936890 
	C481.686646,469.701477 503.377655,504.483459 525.129517,539.227356 
	C541.598267,565.532532 558.173340,591.771301 574.647461,618.073181 
	C596.141968,652.390320 617.575500,686.745605 639.050720,721.074890 
	C653.221497,743.727722 667.428833,766.357666 681.591736,789.015503 
	C683.166748,791.535217 684.556885,794.170471 685.743347,797.263123 
	C682.487427,798.767578 679.520935,799.761047 676.115356,800.870544 
	C667.470093,802.296997 659.263977,803.607361 650.832397,804.595337 
	C648.769287,804.314636 646.931580,804.356445 645.093872,804.398315 
z"/>
<path fill="#9B33D6" opacity="1.000000" stroke="none" 
	d="
M965.000000,469.531342 
	C962.037842,466.405609 958.651550,463.079407 956.181580,459.173767 
	C938.976440,431.968170 921.943054,404.653809 904.889709,377.352386 
	C883.528992,343.155182 862.242798,308.911377 840.847839,274.735657 
	C822.621948,245.622284 804.229492,216.613174 786.016052,187.492050 
	C763.579895,151.619339 741.291016,115.654465 718.864990,79.775345 
	C704.353516,56.558716 689.702393,33.429382 675.136475,10.246695 
	C673.376221,7.445066 671.757507,4.554507 670.036621,1.352584 
	C698.020874,1.000000 726.041809,1.000000 754.536316,1.374509 
	C756.755615,5.102163 758.285828,8.589799 760.281738,11.786688 
	C773.469055,32.908855 786.784546,53.950935 800.004761,75.052658 
	C821.508667,109.376587 842.993958,143.712219 864.444763,178.069351 
	C882.467773,206.936295 900.405212,235.856674 918.427979,264.723785 
	C932.317993,286.971588 946.249939,309.193512 960.271667,331.358398 
	C961.421204,333.175507 963.404236,334.465210 965.000000,336.000000 
	C965.000000,380.354218 965.000000,424.708466 965.000000,469.531342 
z"/>
<path fill="#A42FD5" opacity="1.000000" stroke="none" 
	d="
M965.000000,335.531342 
	C963.404236,334.465210 961.421204,333.175507 960.271667,331.358398 
	C946.249939,309.193512 932.317993,286.971588 918.427979,264.723785 
	C900.405212,235.856674 882.467773,206.936295 864.444763,178.069351 
	C842.993958,143.712219 821.508667,109.376587 800.004761,75.052658 
	C786.784546,53.950935 773.469055,32.908855 760.281738,11.786688 
	C758.285828,8.589799 756.755615,5.102163 755.005005,1.374509 
	C787.687561,1.000000 820.375122,1.000000 853.531738,1.387887 
	C854.537598,3.292284 854.819214,4.967399 855.648804,6.301863 
	C872.121704,32.800381 888.652466,59.262920 905.182861,85.725700 
	C922.152954,112.892418 939.073792,140.090347 956.180725,167.170731 
	C958.649109,171.078232 962.037415,174.404663 965.000000,178.000000 
	C965.000000,230.354233 965.000000,282.708466 965.000000,335.531342 
z"/>
<path fill="#FFFFFF" opacity="1.000000" stroke="none" 
	d="
M651.057861,804.917725 
	C659.263977,803.607361 667.470093,802.296997 676.471436,800.907043 
	C681.955322,799.889648 686.695557,799.153870 691.322510,797.973694 
	C702.580994,795.102356 713.786865,792.024719 725.426270,789.044922 
	C738.892456,784.945801 751.946289,780.831909 765.340332,776.604370 
	C770.747925,774.594177 775.860657,772.807739 780.861633,770.749695 
	C783.006165,769.867126 784.918335,768.419861 786.936096,767.229187 
	C792.444946,764.926147 797.941101,762.591797 803.472046,760.343079 
	C804.787109,759.808472 806.218933,759.561035 808.267212,758.946899 
	C810.647156,757.824646 812.356934,756.936890 814.066650,756.049194 
	C814.066650,756.049133 814.004639,756.009399 814.331299,756.063965 
	C815.128174,755.761108 815.598450,755.403748 816.068726,755.046387 
	C816.068726,755.046387 816.005554,755.009888 816.332153,755.064026 
	C817.128662,754.759766 817.598511,754.401367 818.068359,754.042969 
	C818.068420,754.043030 818.004272,754.008057 818.391357,754.041443 
	C825.874695,750.398010 832.970947,746.721191 840.067139,743.044373 
	C840.067139,743.044373 840.005066,743.009033 840.320679,743.058228 
	C841.111877,742.749390 841.587463,742.391296 842.063049,742.033203 
	C842.063049,742.033203 842.001587,742.003906 842.342224,742.023926 
	C843.734375,741.130737 844.785889,740.217529 845.837402,739.304321 
	C856.806763,732.821594 867.776062,726.338806 878.932251,719.575317 
	C879.536377,719.208496 879.953613,719.122437 881.003723,719.005066 
	C882.141113,718.336670 882.645569,717.699646 883.150024,717.062622 
	C884.959961,716.127869 886.939880,715.421631 888.552979,714.222168 
	C901.597534,704.522827 914.585999,694.747681 927.557373,684.950562 
	C929.736572,683.304626 931.751465,681.441162 933.999268,679.371582 
	C937.713135,676.388550 941.479980,673.946289 944.781433,670.985168 
	C950.998657,665.408875 956.942200,659.527649 963.022766,653.797852 
	C963.354553,653.485229 963.899353,653.398560 964.672485,653.103394 
	C965.000000,705.622864 965.000000,758.245667 965.000000,811.000000 
	C842.645813,811.000000 720.291565,811.000000 597.468628,811.000000 
	C598.874390,810.592468 600.748779,810.184875 602.832764,809.460327 
	C607.051880,809.087280 611.061340,809.031128 615.985107,808.981628 
	C628.285461,807.631409 639.671692,806.274536 651.057861,804.917725 
z"/>
<path fill="#4660E1" opacity="1.000000" stroke="none" 
	d="
M295.480225,743.079346 
	C295.141754,742.737305 294.803253,742.395142 294.231445,741.601318 
	C293.539886,739.777466 293.324249,738.256165 292.586029,737.056274 
	C284.936310,724.622864 277.235260,712.220703 269.484833,699.849670 
	C254.688095,676.231506 239.824905,652.654907 225.034668,629.032654 
	C203.554672,594.725769 182.125076,560.387451 160.654709,526.074585 
	C144.815155,500.760681 128.927094,475.477142 113.092514,450.160156 
	C91.364685,415.420776 69.666893,380.662628 47.956432,345.912384 
	C34.596214,324.527771 21.282116,303.113983 7.808705,281.800934 
	C6.394190,279.563354 4.041070,277.919189 2.063039,275.761169 
	C2.002663,275.522614 1.890077,275.043823 1.931883,274.592682 
	C1.649126,271.094360 1.324563,268.047180 1.000000,265.000000 
	C1.000000,261.969421 1.000000,258.938812 1.393307,255.293427 
	C1.822157,251.438416 1.857700,248.198212 1.926243,244.514740 
	C1.639495,241.047653 1.319748,238.023834 1.000000,235.000000 
	C1.000000,233.933334 1.000000,232.866653 1.323666,231.276184 
	C2.068166,229.520264 2.489000,228.288162 3.081330,226.827667 
	C3.439599,226.064896 3.626373,225.530548 4.175680,225.025070 
	C5.728474,226.122131 7.233856,226.990494 8.058257,228.290665 
	C13.746817,237.262009 19.244141,246.354355 24.894514,255.350281 
	C43.169876,284.446411 61.541676,313.482086 79.770424,342.607330 
	C104.515388,382.143951 129.119919,421.768494 153.865753,461.304535 
	C172.095108,490.429321 190.512787,519.436218 208.741302,548.561523 
	C233.486130,588.098450 258.086700,627.725586 282.832306,667.261963 
	C301.061371,696.386780 319.472748,725.397644 337.655212,754.551331 
	C339.608185,757.682739 340.574799,761.429199 341.998962,764.890381 
	C332.433258,760.735474 322.867554,756.580627 312.973633,751.809448 
	C311.410919,750.808533 310.176453,750.423889 308.941986,750.039246 
	C308.941986,750.039246 308.996613,750.004089 309.007263,749.663635 
	C308.325470,749.227844 307.633026,749.132507 306.940582,749.037170 
	C306.940582,749.037170 306.996368,749.004272 307.007141,748.663696 
	C306.325470,748.227844 305.633026,748.132507 304.940582,748.037170 
	C304.940582,748.037170 304.995667,748.004089 304.957794,747.644775 
	C304.422089,747.207703 303.924225,747.129822 303.426392,747.052002 
	C303.426392,747.052002 303.487671,747.014404 303.292908,746.662476 
	C302.541656,746.223389 301.985168,746.136230 301.428711,746.049072 
	C301.428711,746.049072 301.491150,746.014709 301.294617,745.662598 
	C300.541656,745.223389 299.985168,745.136230 299.428711,745.049072 
	C299.428711,745.049072 299.494141,745.015991 299.388367,744.696411 
	C298.822723,744.280884 298.362854,744.184875 297.903015,744.088867 
	C297.903015,744.088867 297.982178,744.037720 297.841125,743.714233 
	C296.960114,743.286987 296.220184,743.183167 295.480225,743.079346 
z"/>
<path fill="#4262E1" opacity="1.000000" stroke="none" 
	d="
M2.123416,275.999695 
	C4.041070,277.919189 6.394190,279.563354 7.808705,281.800934 
	C21.282116,303.113983 34.596214,324.527771 47.956432,345.912384 
	C69.666893,380.662628 91.364685,415.420776 113.092514,450.160156 
	C128.927094,475.477142 144.815155,500.760681 160.654709,526.074585 
	C182.125076,560.387451 203.554672,594.725769 225.034668,629.032654 
	C239.824905,652.654907 254.688095,676.231506 269.484833,699.849670 
	C277.235260,712.220703 284.936310,724.622864 292.586029,737.056274 
	C293.324249,738.256165 293.539886,739.777466 293.997894,741.531311 
	C275.599762,730.721191 257.161346,719.594971 238.835205,708.286804 
	C234.767456,705.776794 231.095703,702.625061 227.104706,699.083008 
	C226.305862,696.917114 225.810379,695.332581 224.957291,693.972290 
	C210.407684,670.773071 195.768814,647.629639 181.240250,624.417297 
	C159.403931,589.529236 137.646103,554.592102 115.839737,519.685303 
	C97.550537,490.408569 79.236359,461.147461 60.939472,431.875519 
	C47.568790,410.484711 34.281742,389.040985 20.783903,367.730774 
	C17.939457,363.239990 14.338478,359.228394 10.957710,354.618835 
	C9.917582,350.482056 9.005838,346.722473 8.135544,342.515137 
	C7.090785,334.021790 6.004579,325.976166 4.918372,317.930511 
	C4.871376,317.137390 4.824380,316.344269 4.727180,314.697937 
	C4.087193,306.877716 3.497410,299.910706 2.907626,292.943726 
	C2.487436,291.711792 2.067246,290.479828 1.323528,289.123962 
	C1.000000,287.933319 1.000000,286.866669 1.325588,285.151947 
	C1.808590,281.669159 1.966004,278.834442 2.123416,275.999695 
z"/>
<path fill="#AE2AD4" opacity="1.000000" stroke="none" 
	d="
M965.000000,177.531342 
	C962.037415,174.404663 958.649109,171.078232 956.180725,167.170731 
	C939.073792,140.090347 922.152954,112.892418 905.182861,85.725700 
	C888.652466,59.262920 872.121704,32.800381 855.648804,6.301863 
	C854.819214,4.967399 854.537598,3.292284 854.000366,1.387887 
	C890.943726,1.000000 927.887451,1.000000 965.000000,1.000000 
	C965.000000,59.687454 965.000000,118.375069 965.000000,177.531342 
z"/>
<path fill="#FEFEFE" opacity="1.000000" stroke="none" 
	d="
M2.909832,227.056061 
	C2.489000,228.288162 2.068166,229.520264 1.323666,230.876190 
	C1.000000,154.446762 1.000000,77.893524 1.000000,1.000000 
	C22.686375,1.000000 44.374527,1.000000 66.555939,1.361023 
	C65.678078,4.468629 64.306961,7.215212 62.935837,9.961795 
	C62.935837,9.961795 62.994583,9.999583 62.723907,10.140507 
	C62.275822,10.845035 62.098408,11.408638 61.920994,11.972240 
	C61.920994,11.972240 61.990856,11.995247 61.683102,12.092912 
	C61.223816,12.784633 61.072281,13.378689 60.920746,13.972745 
	C60.920746,13.972745 60.990997,13.996319 60.662384,14.118387 
	C58.529987,18.149460 56.726204,22.058462 54.922421,25.967466 
	C54.922421,25.967466 54.991352,25.997822 54.658669,26.127439 
	C53.190819,29.439127 52.055653,32.621197 50.920486,35.803265 
	C50.627003,36.433559 50.333519,37.063858 49.654999,38.420383 
	C48.716892,40.508495 48.163822,41.870380 47.508060,43.259880 
	C47.405369,43.287495 47.229172,43.653923 46.921944,43.804573 
	C46.412834,44.558647 46.210960,45.162075 45.677937,45.924408 
	C42.488522,53.747826 39.630253,61.412334 36.670517,69.358772 
	C33.093048,79.154984 29.617041,88.669273 25.984943,98.504875 
	C23.962772,104.884209 22.096695,110.942215 20.091530,117.362144 
	C18.746048,122.363144 17.325491,126.958748 16.373158,131.649414 
	C13.445568,146.069107 10.697220,160.525177 7.645463,175.274994 
	C6.602690,181.455627 5.671964,187.315247 5.036167,193.206696 
	C4.720099,196.135483 4.945167,199.122650 4.920441,202.694214 
	C4.836603,204.114746 4.757761,204.924500 4.528183,205.515533 
	C3.888243,212.549911 3.399037,219.802979 2.909832,227.056061 
z"/>
<path fill="#35314F" opacity="1.000000" stroke="none" 
	d="
M63.283001,10.083274 
	C64.306961,7.215212 65.678078,4.468629 67.024597,1.361023 
	C67.000000,1.000000 67.500000,1.000000 67.750000,1.000000 
	C66.543388,4.068252 65.086777,7.136502 63.283001,10.083274 
z"/>
<path fill="#312B45" opacity="1.000000" stroke="none" 
	d="
M573.458069,811.000000 
	C576.311157,810.660217 579.622253,810.320496 583.416321,810.282593 
	C583.899231,810.584473 584.000000,811.000000 584.000000,811.000000 
	C580.638733,811.000000 577.277405,811.000000 573.458069,811.000000 
z"/>
<path fill="#312B45" opacity="1.000000" stroke="none" 
	d="
M552.003540,810.065369 
	C555.580261,810.099731 559.156982,810.134033 562.866821,810.584229 
	C559.638733,811.000000 556.277405,811.000000 552.468628,810.766357 
	C552.021118,810.532776 552.003540,810.065369 552.003540,810.065369 
z"/>
<path fill="#74767C" opacity="1.000000" stroke="none" 
	d="
M551.556885,810.045288 
	C552.003540,810.065369 552.021118,810.532776 552.010559,810.766357 
	C548.969421,811.000000 545.938782,811.000000 542.454102,811.000000 
	C545.036743,810.675110 548.073547,810.350220 551.556885,810.045288 
z"/>
<path fill="#74767C" opacity="1.000000" stroke="none" 
	d="
M584.454102,811.000000 
	C584.000000,811.000000 583.899231,810.584473 583.852051,810.376160 
	C587.030945,810.229431 590.256958,810.290955 593.741516,810.676270 
	C590.969421,811.000000 587.938782,811.000000 584.454102,811.000000 
z"/>
<path fill="#74767C" opacity="1.000000" stroke="none" 
	d="
M1.000000,235.454102 
	C1.319748,238.023834 1.639495,241.047653 1.702263,244.505524 
	C1.445284,244.939560 1.000000,245.000000 1.000000,245.000000 
	C1.000000,241.969406 1.000000,238.938812 1.000000,235.454102 
z"/>
<path fill="#312B45" opacity="1.000000" stroke="none" 
	d="
M1.000000,245.454102 
	C1.000000,245.000000 1.445284,244.939560 1.669263,244.948776 
	C1.857700,248.198212 1.822157,251.438416 1.393307,254.839325 
	C1.000000,251.969406 1.000000,248.938812 1.000000,245.454102 
z"/>
<path fill="#312B45" opacity="1.000000" stroke="none" 
	d="
M1.000000,265.454102 
	C1.324563,268.047180 1.649126,271.094360 1.708680,274.601013 
	C1.443671,275.060486 1.000000,275.000000 1.000000,275.000000 
	C1.000000,271.969391 1.000000,268.938812 1.000000,265.454102 
z"/>
<path fill="#74767C" opacity="1.000000" stroke="none" 
	d="
M1.000000,275.454102 
	C1.000000,275.000000 1.443671,275.060486 1.666874,275.052155 
	C1.890077,275.043823 2.002663,275.522614 2.063040,275.761169 
	C1.966004,278.834442 1.808590,281.669159 1.325588,284.751953 
	C1.000000,281.969391 1.000000,278.938812 1.000000,275.454102 
z"/>
<path fill="#5359DF" opacity="1.000000" stroke="none" 
	d="
M46.009087,45.765503 
	C46.210960,45.162075 46.412834,44.558647 46.963699,43.720306 
	C47.312687,43.485394 47.610756,43.232265 47.610756,43.232265 
	C48.163822,41.870380 48.716892,40.508495 49.574921,38.936447 
	C53.870182,45.588295 57.682266,52.561420 61.879986,59.294113 
	C87.260490,100.001740 112.710617,140.666000 138.174728,181.321426 
	C155.797256,209.457184 173.522461,237.528671 191.125214,265.676758 
	C215.856766,305.224304 240.475632,344.842377 265.221985,384.380646 
	C283.451813,413.507202 301.862335,442.520660 320.095154,471.645355 
	C343.171936,508.507812 366.110626,545.456787 389.184296,582.321228 
	C405.741394,608.774231 422.475311,635.116638 439.034821,661.568176 
	C462.111847,698.430420 485.098602,735.349182 508.126343,772.242310 
	C514.894409,783.085571 521.618652,793.956909 528.495789,804.730591 
	C529.595032,806.452637 531.395935,807.726746 532.932617,809.543701 
	C520.755127,808.641113 508.494995,807.588806 496.286194,806.112244 
	C483.994690,804.625793 471.754181,802.717651 459.014954,800.558838 
	C453.693573,798.787354 448.848633,797.451416 443.998260,795.729797 
	C443.500519,793.951782 443.244690,792.411804 442.481323,791.188599 
	C422.363739,758.952759 402.219299,726.733582 382.024628,694.545959 
	C365.445007,668.120361 348.750427,641.766785 332.187164,615.330933 
	C310.426483,580.599609 288.731262,545.827209 267.032959,511.056885 
	C247.618820,479.946808 228.288193,448.784485 208.826538,417.704163 
	C195.352341,396.185852 181.650787,374.809845 168.170807,353.295074 
	C146.321960,318.423187 124.571724,283.489563 102.779579,248.582169 
	C90.213791,228.453873 77.675583,208.308304 65.073624,188.202682 
	C51.766590,166.972168 38.428204,145.761032 24.994713,124.610565 
	C24.031328,123.093735 22.177580,122.142418 20.799431,120.541306 
	C20.969278,119.117043 21.077513,118.079620 21.457764,116.814514 
	C23.200199,110.452400 24.670618,104.317978 26.141035,98.183556 
	C29.617041,88.669273 33.093048,79.154984 36.948219,69.125435 
	C40.221291,60.995277 43.115189,53.380390 46.009087,45.765503 
z"/>
<path fill="#495EE0" opacity="1.000000" stroke="none" 
	d="
M4.678918,205.734238 
	C4.757761,204.924500 4.836603,204.114746 5.165393,202.373535 
	C6.356998,194.629639 7.298656,187.817200 8.570136,181.050964 
	C10.223941,182.313370 11.853960,183.327011 12.816965,184.782104 
	C16.297222,190.040771 19.553368,195.447800 22.893814,200.798996 
	C45.926006,237.695190 68.922089,274.613983 92.002396,311.480072 
	C108.564316,337.934357 125.290771,364.285675 141.850510,390.741302 
	C164.927765,427.609314 187.891968,464.548096 210.954193,501.425507 
	C226.886826,526.902344 242.939774,552.304016 258.873749,577.780029 
	C281.937988,614.656250 304.905975,651.592651 327.986115,688.458862 
	C344.547913,714.913330 361.287689,741.256531 377.778839,767.754700 
	C379.997192,771.319214 381.224060,775.500732 382.657043,779.377808 
	C381.971100,779.563721 381.538147,779.768494 381.105225,779.973206 
	C377.154236,778.684082 373.203247,777.394958 368.865112,775.630127 
	C361.140076,772.457275 353.802155,769.760132 346.464203,767.062988 
	C345.197510,766.439148 343.930817,765.815247 342.331543,765.040833 
	C340.574799,761.429199 339.608185,757.682739 337.655212,754.551331 
	C319.472748,725.397644 301.061371,696.386780 282.832306,667.261963 
	C258.086700,627.725586 233.486130,588.098450 208.741302,548.561523 
	C190.512787,519.436218 172.095108,490.429321 153.865753,461.304535 
	C129.119919,421.768494 104.515388,382.143951 79.770424,342.607330 
	C61.541676,313.482086 43.169876,284.446411 24.894514,255.350281 
	C19.244141,246.354355 13.746817,237.262009 8.058257,228.290665 
	C7.233856,226.990494 5.728474,226.122131 4.153035,224.562958 
	C4.071543,217.959381 4.375230,211.846802 4.678918,205.734238 
z"/>
<path fill="#3E63E1" opacity="1.000000" stroke="none" 
	d="
M11.086098,354.996002 
	C14.338478,359.228394 17.939457,363.239990 20.783903,367.730774 
	C34.281742,389.040985 47.568790,410.484711 60.939472,431.875519 
	C79.236359,461.147461 97.550537,490.408569 115.839737,519.685303 
	C137.646103,554.592102 159.403931,589.529236 181.240250,624.417297 
	C195.768814,647.629639 210.407684,670.773071 224.957291,693.972290 
	C225.810379,695.332581 226.305862,696.917114 226.954681,698.777710 
	C222.101013,695.834534 216.968964,692.860596 212.478653,689.116943 
	C202.150177,680.505920 192.133911,671.520386 181.773254,662.397705 
	C181.555588,662.108521 181.666626,662.193054 181.666626,662.193054 
	C181.666626,662.193054 181.198395,662.140625 180.921097,661.699585 
	C179.057953,659.860352 177.472107,658.462097 175.886261,657.063904 
	C175.886261,657.063904 175.965408,657.033325 175.936890,656.770142 
	C175.556488,656.369690 175.204575,656.232483 174.852661,656.095276 
	C174.852676,656.095276 174.947083,656.051819 174.926117,655.791077 
	C174.554337,655.383850 174.203491,655.237305 173.852661,655.090820 
	C173.852661,655.090820 173.949692,655.073975 173.885590,654.775513 
	C173.194504,654.326660 172.567505,654.176208 171.940506,654.025818 
	C171.940506,654.025818 171.997238,654.002014 172.049500,653.690308 
	C171.710602,653.264893 171.319427,653.151245 170.928253,653.037598 
	C170.928253,653.037598 170.993820,653.006287 171.046799,652.698608 
	C170.708908,652.273315 170.318039,652.155762 169.927155,652.038208 
	C169.927155,652.038208 169.993088,652.006653 170.039978,651.714111 
	C169.698669,651.290710 169.310471,651.159790 168.922272,651.028931 
	C168.922256,651.028931 168.991028,651.008362 169.050232,650.692993 
	C166.715042,648.264832 164.320663,646.152100 161.926285,644.039307 
	C161.926285,644.039307 161.991348,644.009094 161.991989,643.730225 
	C161.636230,643.308777 161.279816,643.166077 160.923416,643.023438 
	C160.923416,643.023438 160.991058,643.008972 160.991867,642.729431 
	C160.636261,642.307739 160.279846,642.165588 159.923431,642.023438 
	C159.923416,642.023438 159.991058,642.008972 159.991852,641.729492 
	C159.636246,641.307800 159.279831,641.165588 158.923416,641.023438 
	C158.923416,641.023438 158.991058,641.008972 158.996536,640.721741 
	C158.642593,640.300049 158.283173,640.165588 157.923752,640.031128 
	C157.923752,640.031128 157.991180,640.008911 158.023193,639.704102 
	C157.678818,639.280029 157.302399,639.160767 156.925980,639.041504 
	C156.925980,639.041504 156.993546,639.006409 157.052002,638.696655 
	C156.715714,638.271912 156.320953,638.156860 155.926178,638.041870 
	C155.926178,638.041870 155.993576,638.006348 156.051910,637.696777 
	C155.715576,637.272034 155.320877,637.156921 154.926178,637.041748 
	C154.926193,637.041748 154.993530,637.006348 155.051956,636.696960 
	C154.715912,636.271667 154.321442,636.155762 153.926971,636.039795 
	C153.926956,636.039856 153.993591,636.006409 154.048920,635.698853 
	C153.712067,635.273193 153.319901,635.155090 152.927734,635.036987 
	C152.927734,635.036987 152.993546,635.006348 153.047302,634.698608 
	C152.709991,634.272827 152.318909,634.154846 151.927826,634.036865 
	C151.927826,634.036865 151.993561,634.006348 152.047043,633.698730 
	C151.709641,633.272949 151.318756,633.154846 150.927856,633.036743 
	C150.927856,633.036743 150.993607,633.006348 151.047318,632.698975 
	C150.710464,632.271729 150.319901,632.151917 149.929352,632.032166 
	C149.929337,632.032166 149.992432,632.006958 149.977478,631.660156 
	C149.508530,631.174744 149.054520,631.036255 148.600525,630.897705 
	C148.395218,630.927368 148.241882,630.851624 148.203369,630.147156 
	C147.793213,629.102234 147.320190,628.580750 146.847168,628.059326 
	C146.847168,628.059326 146.935104,628.056702 146.925415,627.796875 
	C146.580307,627.367004 146.244888,627.196960 145.909454,627.026978 
	C145.909454,627.026978 145.988998,627.006592 145.854721,626.815430 
	C144.862885,625.764587 144.005325,624.904907 143.147766,624.045227 
	C134.125549,613.708801 124.707237,603.686340 116.194092,592.946350 
	C107.915482,582.502441 100.390923,571.441895 92.860367,560.429749 
	C86.688591,551.404602 80.905556,542.108032 75.136368,532.816162 
	C73.082253,529.507751 71.575607,525.859497 69.465256,521.928955 
	C67.721069,519.003845 66.330688,516.516052 64.940300,514.028320 
	C64.940300,514.028320 64.998253,514.002991 65.094101,513.674805 
	C64.770554,512.904053 64.351143,512.461426 63.931747,512.018799 
	C63.931755,512.018799 63.995815,512.003174 64.094933,511.675659 
	C63.772972,510.905548 63.351894,510.462952 62.930817,510.020325 
	C62.930820,510.020325 62.994980,510.003052 63.098927,509.660461 
	C59.779846,502.886841 56.356819,496.455872 52.933792,490.024872 
	C52.933788,490.024872 52.996124,490.002197 53.106827,489.662506 
	C52.080765,487.108490 50.944008,484.894135 49.807251,482.679810 
	C49.641727,482.194153 49.476204,481.708527 49.015686,480.556549 
	C48.720692,479.890228 48.899818,480.012604 48.899818,480.012604 
	C48.766521,479.734314 48.633221,479.455994 48.257801,478.819336 
	C48.015682,478.460938 48.007904,478.528381 48.007904,478.528381 
	C47.410347,477.621399 46.812786,476.714417 46.257545,475.233948 
	C44.842781,471.448120 43.385696,468.235809 41.928612,465.023499 
	C41.928616,465.023499 41.993866,465.004150 42.094688,464.659912 
	C41.438431,462.883423 40.681358,461.451111 39.924282,460.018829 
	C39.924278,460.018829 39.992119,460.005096 40.096184,459.662842 
	C39.441830,457.885284 38.683414,456.449982 37.925003,455.014648 
	C37.925003,455.014648 37.992535,455.005768 38.076408,454.725159 
	C37.671726,453.277008 37.183170,452.109467 36.694603,450.941925 
	C33.498348,442.344147 30.304134,433.745575 27.102783,425.149719 
	C26.775169,424.270020 26.404816,423.406219 26.310703,422.018005 
	C22.747330,406.978821 18.927549,392.456757 15.108854,377.527832 
	C13.768660,369.746002 12.427380,362.371002 11.086098,354.996002 
z"/>
<path fill="#30324A" opacity="1.000000" stroke="none" 
	d="
M444.003662,796.115479 
	C448.848633,797.451416 453.693573,798.787354 458.569336,800.466003 
	C443.851318,797.407654 429.102509,794.006653 414.422058,790.296753 
	C414.713928,789.961304 414.937378,789.934814 415.557434,789.871887 
	C425.303925,791.928772 434.653778,794.022156 444.003662,796.115479 
z"/>
<path fill="#30324A" opacity="1.000000" stroke="none" 
	d="
M15.107767,377.934662 
	C18.927549,392.456757 22.747330,406.978821 26.304405,421.718872 
	C22.331806,408.670959 18.620539,395.405487 14.914500,382.138489 
	C14.604975,381.030426 14.330691,379.912537 14.311360,378.381378 
	C14.757716,377.953918 14.932740,377.944275 15.107767,377.934662 
z"/>
<path fill="#313850" opacity="1.000000" stroke="none" 
	d="
M15.108852,377.527832 
	C14.932740,377.944275 14.757716,377.953918 14.320204,377.978882 
	C11.789997,366.598419 9.522281,355.202637 7.467180,343.393127 
	C7.679797,342.979370 8.094098,342.962860 8.094097,342.962860 
	C9.005838,346.722473 9.917582,350.482056 10.957711,354.618835 
	C12.427380,362.371002 13.768660,369.746002 15.108852,377.527832 
z"/>
<path fill="#292C48" opacity="1.000000" stroke="none" 
	d="
M381.353577,780.225708 
	C381.538147,779.768494 381.971100,779.563721 382.947815,779.565918 
	C392.662384,782.832275 401.833130,785.891724 410.941223,789.034668 
	C410.878601,789.118164 410.738098,789.272522 410.738098,789.272522 
	C401.026062,786.341064 391.314026,783.409607 381.353577,780.225708 
z"/>
<path fill="#30324A" opacity="1.000000" stroke="none" 
	d="
M346.608337,767.350708 
	C353.802155,769.760132 361.140076,772.457275 368.496521,775.470154 
	C361.260834,773.070068 354.006653,770.354248 346.608337,767.350708 
z"/>
<path fill="#313850" opacity="1.000000" stroke="none" 
	d="
M2.537520,293.162018 
	C3.497410,299.910706 4.087193,306.877716 4.733956,314.100891 
	C4.302650,313.767426 3.432067,313.206604 3.385072,312.583649 
	C2.902621,306.188324 2.553637,299.782898 2.537520,293.162018 
z"/>
<path fill="#30324A" opacity="1.000000" stroke="none" 
	d="
M8.135545,342.515137 
	C8.094098,342.962860 7.679797,342.979370 7.472749,342.989624 
	C6.246488,334.778748 5.227275,326.557678 4.563217,318.133545 
	C6.004579,325.976166 7.090785,334.021790 8.135545,342.515137 
z"/>
<path fill="#313850" opacity="1.000000" stroke="none" 
	d="
M52.938652,490.398651 
	C56.356819,496.455872 59.779846,502.886841 63.081345,509.688660 
	C59.621048,503.630432 56.282276,497.201447 52.938652,490.398651 
z"/>
<path fill="#292C48" opacity="1.000000" stroke="none" 
	d="
M161.988602,644.371399 
	C164.320663,646.152100 166.715042,648.264832 169.035263,650.725586 
	C166.657715,648.950195 164.354309,646.826843 161.988602,644.371399 
z"/>
<path fill="#292C48" opacity="1.000000" stroke="none" 
	d="
M41.919441,465.401672 
	C43.385696,468.235809 44.842781,471.448120 46.119755,474.927246 
	C44.596523,472.055969 43.253399,468.917908 41.919441,465.401672 
z"/>
<path fill="#313850" opacity="1.000000" stroke="none" 
	d="
M64.976624,514.391113 
	C66.330688,516.516052 67.721069,519.003845 69.117050,521.497498 
	C69.207512,521.638977 69.277328,521.788696 69.385002,521.902710 
	C69.425735,521.945801 69.553986,521.906250 69.642334,521.904297 
	C68.099205,519.520874 66.556068,517.137390 64.976624,514.391113 
z"/>
<path fill="#313850" opacity="1.000000" stroke="none" 
	d="
M49.896812,482.832397 
	C50.944008,484.894135 52.080765,487.108490 53.088997,489.690491 
	C51.969101,487.700439 50.977737,485.342682 49.896812,482.832397 
z"/>
<path fill="#292C48" opacity="1.000000" stroke="none" 
	d="
M175.835663,657.403687 
	C177.472107,658.462097 179.057953,659.860352 180.724518,661.569763 
	C179.131851,660.501831 177.458466,659.122681 175.835663,657.403687 
z"/>
<path fill="#292C48" opacity="1.000000" stroke="none" 
	d="
M143.070099,624.221436 
	C144.005325,624.904907 144.862885,625.764587 145.863129,626.855591 
	C145.001358,626.190552 143.996887,625.294067 143.070099,624.221436 
z"/>
<path fill="#292C48" opacity="1.000000" stroke="none" 
	d="
M36.611996,450.756348 
	C37.183170,452.109467 37.671726,453.277008 38.059834,454.754944 
	C37.482716,453.567108 37.006046,452.068970 36.611996,450.756348 
z"/>
<path fill="#292C48" opacity="1.000000" stroke="none" 
	d="
M37.907291,455.371765 
	C38.683414,456.449982 39.441830,457.885284 40.078766,459.692749 
	C39.268047,458.619568 38.578815,457.174194 37.907291,455.371765 
z"/>
<path fill="#292C48" opacity="1.000000" stroke="none" 
	d="
M39.909775,460.373627 
	C40.681358,461.451111 41.438431,462.883423 42.078400,464.689819 
	C41.272610,463.618774 40.583935,462.173584 39.909775,460.373627 
z"/>
<path fill="#313850" opacity="1.000000" stroke="none" 
	d="
M309.129608,750.299255 
	C310.176453,750.423889 311.410919,750.808533 312.739197,751.528809 
	C311.661072,751.429321 310.489166,750.994263 309.129608,750.299255 
z"/>
<path fill="#292C48" opacity="1.000000" stroke="none" 
	d="
M415.160828,789.908325 
	C414.937378,789.934814 414.713928,789.961304 414.155640,790.034546 
	C413.411438,790.077454 413.001984,790.073547 412.294037,789.720947 
	C411.992523,789.204712 411.989532,789.037231 412.338684,788.860474 
	C413.514191,789.203613 414.337494,789.555969 415.160828,789.908325 
z"/>
<path fill="#313850" opacity="1.000000" stroke="none" 
	d="
M48.833130,480.003235 
	C48.899818,480.012604 48.720692,479.890228 48.707863,479.851166 
	C48.695034,479.812103 48.766441,479.993866 48.833130,480.003235 
z"/>
<path fill="#313850" opacity="1.000000" stroke="none" 
	d="
M63.923813,512.324829 
	C64.351143,512.461426 64.770554,512.904053 65.078690,513.702393 
	C64.616905,513.582397 64.266396,513.106628 63.923813,512.324829 
z"/>
<path fill="#313850" opacity="1.000000" stroke="none" 
	d="
M305.115204,748.287964 
	C305.633026,748.132507 306.325470,748.227844 307.000092,748.695374 
	C306.418121,748.891296 305.853973,748.715027 305.115204,748.287964 
z"/>
<path fill="#313850" opacity="1.000000" stroke="none" 
	d="
M307.115204,749.287964 
	C307.633026,749.132507 308.325470,749.227844 309.000092,749.695312 
	C308.418121,749.891235 307.853973,749.714966 307.115204,749.287964 
z"/>
<path fill="#313850" opacity="1.000000" stroke="none" 
	d="
M62.922188,510.326782 
	C63.351894,510.462952 63.772972,510.905548 64.077499,511.703674 
	C63.611816,511.583893 63.262688,511.108582 62.922188,510.326782 
z"/>
<path fill="#313850" opacity="1.000000" stroke="none" 
	d="
M295.666626,743.410522 
	C296.220184,743.183167 296.960114,743.286987 297.827881,743.759521 
	C297.254822,743.999390 296.553925,743.870544 295.666626,743.410522 
z"/>
<path fill="#292C48" opacity="1.000000" stroke="none" 
	d="
M172.101135,654.338135 
	C172.567505,654.176208 173.194504,654.326660 173.880203,654.824463 
	C173.379868,654.998047 172.820816,654.824280 172.101135,654.338135 
z"/>
<path fill="#292C48" opacity="1.000000" stroke="none" 
	d="
M146.692764,628.406616 
	C147.320190,628.580750 147.793213,629.102234 148.190689,630.012207 
	C147.589554,629.851746 147.063950,629.302856 146.692764,628.406616 
z"/>
<path fill="#292C48" opacity="1.000000" stroke="none" 
	d="
M181.709686,662.329224 
	C181.666626,662.193054 181.555588,662.108521 181.527298,662.086182 
	C181.440216,662.159485 181.381439,662.255127 181.322647,662.350769 
	C181.466003,662.388977 181.609390,662.427185 181.709686,662.329224 
z"/>
<path fill="#292C48" opacity="1.000000" stroke="none" 
	d="
M160.972870,643.300415 
	C161.279816,643.166077 161.636230,643.308777 161.982666,643.764893 
	C161.655884,643.911377 161.339096,643.744324 160.972870,643.300415 
z"/>
<path fill="#292C48" opacity="1.000000" stroke="none" 
	d="
M149.979248,632.304321 
	C150.319901,632.151917 150.710464,632.271729 151.032074,632.731812 
	C150.651794,632.906860 150.340454,632.741638 149.979248,632.304321 
z"/>
<path fill="#292C48" opacity="1.000000" stroke="none" 
	d="
M150.979095,633.307983 
	C151.318756,633.154846 151.709641,633.272949 152.031799,633.731567 
	C151.652161,633.907837 151.341263,633.743530 150.979095,633.307983 
z"/>
<path fill="#292C48" opacity="1.000000" stroke="none" 
	d="
M151.979004,634.308105 
	C152.318909,634.154846 152.709991,634.272827 153.031967,634.731567 
	C152.651978,634.907959 152.341080,634.743652 151.979004,634.308105 
z"/>
<path fill="#292C48" opacity="1.000000" stroke="none" 
	d="
M152.978668,635.307861 
	C153.319901,635.155090 153.712067,635.273193 154.032227,635.732178 
	C153.650024,635.908325 153.339828,635.743591 152.978668,635.307861 
z"/>
<path fill="#292C48" opacity="1.000000" stroke="none" 
	d="
M153.974823,636.312317 
	C154.321442,636.155762 154.715912,636.271667 155.034256,636.730652 
	C154.646301,636.910767 154.334488,636.747803 153.974823,636.312317 
z"/>
<path fill="#292C48" opacity="1.000000" stroke="none" 
	d="
M154.974609,637.313843 
	C155.320877,637.156921 155.715576,637.272034 156.034149,637.730469 
	C155.646393,637.911194 155.334717,637.748535 154.974609,637.313843 
z"/>
<path fill="#292C48" opacity="1.000000" stroke="none" 
	d="
M155.974548,638.313965 
	C156.320953,638.156860 156.715714,638.271912 157.034225,638.730347 
	C156.646301,638.911194 156.334610,638.748657 155.974548,638.313965 
z"/>
<path fill="#30324A" opacity="1.000000" stroke="none" 
	d="
M411.986542,788.869751 
	C411.989532,789.037231 411.992523,789.204712 412.000854,789.623413 
	C411.672424,789.823059 411.338684,789.771606 410.871521,789.496338 
	C410.738098,789.272522 410.878601,789.118164 411.182678,788.964111 
	C411.653381,788.830017 411.819946,788.849915 411.986542,788.869751 
z"/>
<path fill="#292C48" opacity="1.000000" stroke="none" 
	d="
M156.975296,639.315002 
	C157.302399,639.160767 157.678818,639.280029 158.010986,639.737427 
	C157.652710,639.913208 157.338669,639.750854 156.975296,639.315002 
z"/>
<path fill="#292C48" opacity="1.000000" stroke="none" 
	d="
M157.973480,640.307617 
	C158.283173,640.165588 158.642593,640.300049 158.988800,640.755493 
	C158.658127,640.912292 158.340668,640.748230 157.973480,640.307617 
z"/>
<path fill="#292C48" opacity="1.000000" stroke="none" 
	d="
M158.973236,641.300903 
	C159.279831,641.165588 159.636246,641.307800 159.984711,641.763306 
	C159.658859,641.910583 159.340958,641.744446 158.973236,641.300903 
z"/>
<path fill="#313850" opacity="1.000000" stroke="none" 
	d="
M47.880989,478.584839 
	C48.007904,478.528381 48.015682,478.460938 48.012226,478.427002 
	C48.008770,478.393036 47.637081,478.394958 47.637081,478.394958 
	C47.637081,478.394958 47.754078,478.641296 47.880989,478.584839 
z"/>
<path fill="#292C48" opacity="1.000000" stroke="none" 
	d="
M159.973251,642.300903 
	C160.279846,642.165588 160.636261,642.307739 160.984711,642.763306 
	C160.658859,642.910583 160.340958,642.744446 159.973251,642.300903 
z"/>
<path fill="#292C48" opacity="1.000000" stroke="none" 
	d="
M168.971512,651.303589 
	C169.310471,651.159790 169.698669,651.290710 170.024841,651.747437 
	C169.648804,651.908264 169.334778,651.743225 168.971512,651.303589 
z"/>
<path fill="#292C48" opacity="1.000000" stroke="none" 
	d="
M169.978790,652.309204 
	C170.318039,652.155762 170.708908,652.273315 171.031494,652.731567 
	C170.652267,652.908203 170.341339,652.744202 169.978790,652.309204 
z"/>
<path fill="#292C48" opacity="1.000000" stroke="none" 
	d="
M170.982178,653.308289 
	C171.319427,653.151245 171.710602,653.264893 172.043030,653.720337 
	C171.668243,653.901062 171.352173,653.739990 170.982178,653.308289 
z"/>
<path fill="#292C48" opacity="1.000000" stroke="none" 
	d="
M145.855072,627.383301 
	C146.244888,627.196960 146.580307,627.367004 146.913391,627.839172 
	C146.540924,628.007446 146.170792,627.873535 145.855072,627.383301 
z"/>
<path fill="#313850" opacity="1.000000" stroke="none" 
	d="
M303.541870,747.386169 
	C303.924225,747.129822 304.422089,747.207703 304.955383,747.676880 
	C304.546326,747.952271 304.101837,747.836365 303.541870,747.386169 
z"/>
<path fill="#313850" opacity="1.000000" stroke="none" 
	d="
M301.628784,746.432007 
	C301.985168,746.136230 302.541656,746.223389 303.297333,746.698120 
	C302.940674,746.995483 302.384766,746.905212 301.628784,746.432007 
z"/>
<path fill="#313850" opacity="1.000000" stroke="none" 
	d="
M299.628784,745.432068 
	C299.985168,745.136230 300.541656,745.223389 301.297333,745.698181 
	C300.940643,745.995544 300.384766,745.905273 299.628784,745.432068 
z"/>
<path fill="#313850" opacity="1.000000" stroke="none" 
	d="
M297.944702,744.475098 
	C298.362854,744.184875 298.822723,744.280884 299.381958,744.732544 
	C298.983063,745.012573 298.484711,744.937012 297.944702,744.475098 
z"/>
<path fill="#292C48" opacity="1.000000" stroke="none" 
	d="
M148.788071,631.151733 
	C149.054520,631.036255 149.508530,631.174744 149.971848,631.693604 
	C149.645981,631.851196 149.310791,631.628418 148.788071,631.151733 
z"/>
<path fill="#292C48" opacity="1.000000" stroke="none" 
	d="
M173.742737,655.456787 
	C174.203491,655.237305 174.554337,655.383850 174.905762,655.838867 
	C174.481842,656.039246 174.057327,655.930969 173.742737,655.456787 
z"/>
<path fill="#292C48" opacity="1.000000" stroke="none" 
	d="
M174.747726,656.447083 
	C175.204575,656.232483 175.556488,656.369690 175.927322,656.811401 
	C175.511765,657.010254 175.077286,656.904541 174.747726,656.447083 
z"/>
<path fill="#312B45" opacity="1.000000" stroke="none" 
	d="
M765.000183,776.718018 
	C751.946289,780.831909 738.892456,784.945801 725.427490,788.838745 
	C725.016357,788.617798 725.011658,788.205322 725.011658,788.205322 
	C734.142334,785.336060 743.273071,782.466736 752.705566,779.397034 
	C756.729553,778.081970 760.451599,776.967407 764.576294,776.071411 
	C764.979004,776.289917 765.000183,776.718018 765.000183,776.718018 
z"/>
<path fill="#372C4C" opacity="1.000000" stroke="none" 
	d="
M839.693604,742.940674 
	C832.970947,746.721191 825.874695,750.398010 818.405396,754.075195 
	C819.050415,753.161804 820.068542,752.247986 821.273987,751.104248 
	C827.414246,748.195190 833.367126,745.516052 839.693604,742.940674 
z"/>
<path fill="#372C4C" opacity="1.000000" stroke="none" 
	d="
M765.340332,776.604370 
	C765.000183,776.718018 764.979004,776.289917 764.971558,776.074646 
	C772.049866,773.002930 779.135620,770.146484 786.578735,767.259644 
	C784.918335,768.419861 783.006165,769.867126 780.861633,770.749695 
	C775.860657,772.807739 770.747925,774.594177 765.340332,776.604370 
z"/>
<path fill="#372C4C" opacity="1.000000" stroke="none" 
	d="
M813.701904,755.933838 
	C812.356934,756.936890 810.647156,757.824646 808.628296,758.765747 
	C809.991821,757.818909 811.664429,756.818726 813.701904,755.933838 
z"/>
<path fill="#372C4C" opacity="1.000000" stroke="none" 
	d="
M817.713318,753.949341 
	C817.598511,754.401367 817.128662,754.759766 816.342468,755.098999 
	C816.470215,754.671753 816.914246,754.263733 817.713318,753.949341 
z"/>
<path fill="#372C4C" opacity="1.000000" stroke="none" 
	d="
M815.714111,754.951843 
	C815.598450,755.403748 815.128174,755.761108 814.341980,756.099182 
	C814.470520,755.672363 814.914978,755.264832 815.714111,754.951843 
z"/>
<path fill="#35314F" opacity="1.000000" stroke="none" 
	d="
M724.632874,788.238159 
	C725.011658,788.205322 725.016357,788.617798 725.015137,788.823975 
	C713.786865,792.024719 702.580994,795.102356 691.322510,797.973694 
	C686.695557,799.153870 681.955322,799.889648 676.910522,800.791016 
	C679.520935,799.761047 682.487427,798.767578 685.794067,797.648315 
	C698.840942,794.438599 711.547546,791.354797 724.632874,788.238159 
z"/>
<path fill="#35314F" opacity="1.000000" stroke="none" 
	d="
M55.285973,25.997673 
	C56.726204,22.058462 58.529987,18.149460 60.641735,14.087624 
	C59.182976,17.965820 57.416252,21.996851 55.285973,25.997673 
z"/>
<path fill="#35314F" opacity="1.000000" stroke="none" 
	d="
M50.846275,35.576012 
	C52.055653,32.621197 53.190819,29.439127 54.638050,26.095926 
	C53.557434,29.072784 52.164753,32.210773 50.846275,35.576012 
z"/>
<path fill="#35314F" opacity="1.000000" stroke="none" 
	d="
M61.286339,13.977167 
	C61.072281,13.378689 61.223816,12.784633 61.663734,12.061647 
	C61.852058,12.615676 61.751995,13.298633 61.286339,13.977167 
z"/>
<path fill="#35314F" opacity="1.000000" stroke="none" 
	d="
M62.287899,11.978550 
	C62.098408,11.408638 62.275822,10.845035 62.707336,10.109770 
	C62.859226,10.620359 62.757015,11.302610 62.287899,11.978550 
z"/>
<path fill="#372C4C" opacity="1.000000" stroke="none" 
	d="
M845.508545,739.336548 
	C844.785889,740.217529 843.734375,741.130737 842.360901,742.052368 
	C843.085876,741.163452 844.132751,740.266174 845.508545,739.336548 
z"/>
<path fill="#372C4C" opacity="1.000000" stroke="none" 
	d="
M841.708618,741.934692 
	C841.587463,742.391296 841.111877,742.749390 840.330078,743.092712 
	C840.467285,742.664001 840.910767,742.250122 841.708618,741.934692 
z"/>
<path fill="#7C44DA" opacity="1.000000" stroke="none" 
	d="
M882.821899,717.075562 
	C882.645569,717.699646 882.141113,718.336670 881.317200,718.942566 
	C881.496399,718.303772 881.995117,717.696106 882.821899,717.075562 
z"/>
<path fill="#35314F" opacity="1.000000" stroke="none" 
	d="
M650.832397,804.595276 
	C639.671692,806.274536 628.285461,807.631409 616.443970,808.912354 
	C624.303955,807.552246 632.617798,806.258911 640.936096,804.994934 
	C642.067017,804.823120 643.220398,804.798523 644.728638,804.552002 
	C646.931580,804.356445 648.769287,804.314636 650.832397,804.595276 
z"/>
<path fill="#313850" opacity="1.000000" stroke="none" 
	d="
M4.528183,205.515533 
	C4.375230,211.846802 4.071543,217.959381 3.790501,224.534058 
	C3.626373,225.530548 3.439599,226.064896 3.081329,226.827667 
	C3.399037,219.802979 3.888243,212.549911 4.528183,205.515533 
z"/>
<path fill="#30324A" opacity="1.000000" stroke="none" 
	d="
M21.185745,117.042206 
	C21.077513,118.079620 20.969278,119.117043 20.580990,120.829086 
	C16.485641,139.334000 12.670352,157.164291 8.611095,174.987823 
	C8.367127,174.981079 7.879206,174.967117 7.879206,174.967117 
	C10.697220,160.525177 13.445568,146.069107 16.373158,131.649414 
	C17.325491,126.958748 18.746048,122.363144 20.330338,117.371887 
	C20.708229,117.019714 21.185743,117.042206 21.185745,117.042206 
z"/>
<path fill="#313850" opacity="1.000000" stroke="none" 
	d="
M7.645463,175.274994 
	C7.879206,174.967117 8.367127,174.981079 8.613657,175.368317 
	C8.653563,177.505295 8.446939,179.255020 8.240314,181.004761 
	C7.298656,187.817200 6.356998,194.629639 5.170388,201.762756 
	C4.945167,199.122650 4.720099,196.135483 5.036167,193.206696 
	C5.671964,187.315247 6.602690,181.455627 7.645463,175.274994 
z"/>
<path fill="#292C48" opacity="1.000000" stroke="none" 
	d="
M45.677940,45.924408 
	C43.115189,53.380390 40.221291,60.995277 37.049686,68.843506 
	C39.630253,61.412334 42.488522,53.747826 45.677940,45.924408 
z"/>
<path fill="#35314F" opacity="1.000000" stroke="none" 
	d="
M21.457764,116.814514 
	C21.185743,117.042206 20.708229,117.019714 20.469421,117.009972 
	C22.096695,110.942215 23.962772,104.884209 25.984943,98.504875 
	C24.670618,104.317978 23.200199,110.452400 21.457764,116.814514 
z"/>
<path fill="#292C48" opacity="1.000000" stroke="none" 
	d="
M47.508064,43.259880 
	C47.610756,43.232265 47.312687,43.485394 47.270927,43.569656 
	C47.229172,43.653923 47.405369,43.287495 47.508064,43.259880 
z"/>
<path fill="#4D5CE0" opacity="1.000000" stroke="none" 
	d="
M8.570137,181.050964 
	C8.446939,179.255020 8.653563,177.505295 8.857624,175.375061 
	C12.670352,157.164291 16.485641,139.334000 20.519373,121.215942 
	C22.177580,122.142418 24.031328,123.093735 24.994713,124.610565 
	C38.428204,145.761032 51.766590,166.972168 65.073624,188.202682 
	C77.675583,208.308304 90.213791,228.453873 102.779579,248.582169 
	C124.571724,283.489563 146.321960,318.423187 168.170807,353.295074 
	C181.650787,374.809845 195.352341,396.185852 208.826538,417.704163 
	C228.288193,448.784485 247.618820,479.946808 267.032959,511.056885 
	C288.731262,545.827209 310.426483,580.599609 332.187164,615.330933 
	C348.750427,641.766785 365.445007,668.120361 382.024628,694.545959 
	C402.219299,726.733582 422.363739,758.952759 442.481323,791.188599 
	C443.244690,792.411804 443.500519,793.951782 443.998260,795.729797 
	C434.653778,794.022156 425.303925,791.928772 415.557434,789.871887 
	C414.337494,789.555969 413.514191,789.203613 412.338684,788.860474 
	C411.819946,788.849915 411.653381,788.830017 411.245331,788.880615 
	C401.833130,785.891724 392.662384,782.832275 383.200836,779.584717 
	C381.224060,775.500732 379.997192,771.319214 377.778839,767.754700 
	C361.287689,741.256531 344.547913,714.913330 327.986115,688.458862 
	C304.905975,651.592651 281.937988,614.656250 258.873749,577.780029 
	C242.939774,552.304016 226.886826,526.902344 210.954193,501.425507 
	C187.891968,464.548096 164.927765,427.609314 141.850510,390.741302 
	C125.290771,364.285675 108.564316,337.934357 92.002396,311.480072 
	C68.922089,274.613983 45.926006,237.695190 22.893814,200.798996 
	C19.553368,195.447800 16.297222,190.040771 12.816965,184.782104 
	C11.853960,183.327011 10.223941,182.313370 8.570137,181.050964 
z"/>
</svg>